# Blender v2.81 (sub 16) OBJ File: ''
# www.blender.org
mtllib assets/models/MultipleTextureCube.mtl
o Cube
v 0.500000 0.500000 0.500000
v 0.500000 -0.500000 0.500000
v -0.500000 0.500000 0.500000
v -0.500000 -0.500000 0.500000
v 0.500000 0.500000 -0.500000
v 0.500000 -0.500000 -0.500000
v -0.500000 0.500000 -0.500000
v -0.500000 -0.500000 -0.500000
vt 0.999900 0.000100
vt 0.000100 0.999900
vt 0.000100 0.000100
vt 0.000100 0.000100
vt 0.999900 0.999900
vt 0.000100 0.999900
vt 0.999900 0.999900
vt 0.000100 0.000100
vt 0.999900 0.000100
vt 0.999900 0.000100
vt 0.000100 0.999900
vt 0.999900 0.999900
vt 0.000100 0.000100
vt 0.999900 0.000100
vt 0.999900 0.000100
vt 0.000100 0.999900
vt 0.999900 0.999900
vt 0.000100 0.999900
vt -0.187400 -0.187400
vt 0.812400 0.812400
vt -0.187400 0.812400
vt 0.812400 -0.187400
vn 0.0000 1.0000 0.0000
vn -1.0000 0.0000 0.0000
vn 0.0000 0.0000 -1.0000
vn 0.0000 -1.0000 0.0000
vn 1.0000 0.0000 0.0000
vn 0.0000 0.0000 1.0000
usemtl Material
s off
f 5/1/1 3/2/1 1/3/1
f 3/4/2 8/5/2 4/6/2
f 7/7/3 6/8/3 8/9/3
f 2/10/4 8/11/4 6/8/4
f 5/12/5 2/13/5 6/14/5
f 5/1/1 7/7/1 3/2/1
f 3/4/2 7/15/2 8/5/2
f 7/7/3 5/16/3 6/8/3
f 2/10/4 4/17/4 8/11/4
f 5/12/5 1/18/5 2/13/5
f 1/19/6 4/20/6 2/21/6
f 1/19/6 3/22/6 4/20/6
